<svg version="1.1" id="Layer_1" xmlns="http://www.w3.org/2000/svg" xmlns:xlink="http://www.w3.org/1999/xlink" x="0px" y="0px"
	 width="100%" viewBox="0 0 336 320" enable-background="new 0 0 336 320" xml:space="preserve">
<path fill="#000000" opacity="1.000000" stroke="none" 
	d="
M154.468658,321.000000 
	C148.852127,314.124451 145.669006,306.917999 150.109985,298.385010 
	C152.085449,294.589294 154.655685,291.326385 158.749405,289.754974 
	C161.637955,288.646179 162.911026,286.876709 162.881760,283.748352 
	C162.778839,272.751160 162.751816,261.751434 162.881683,250.754883 
	C162.922363,247.309601 161.628555,245.965652 158.200897,246.029434 
	C151.704803,246.150375 145.199524,246.166000 138.707291,245.949097 
	C135.260941,245.833939 134.325806,247.422455 134.537201,250.454941 
	C135.384155,262.604492 134.686310,274.754944 134.518646,286.905182 
	C134.434753,292.985840 133.223297,294.267792 127.246193,294.271027 
	C101.917084,294.284821 76.587746,294.324585 51.259068,294.218262 
	C47.251030,294.201447 44.612110,294.831879 42.802696,299.203461 
	C39.946079,306.105164 29.271511,311.135040 22.830053,309.579224 
	C13.960463,307.436890 7.762792,300.350586 7.583215,292.146057 
	C7.364396,282.148712 12.159675,274.746094 20.372303,272.403198 
	C28.915195,269.966064 38.267227,273.306335 42.289566,281.119537 
	C44.357231,285.135925 46.927444,285.975037 50.957664,285.952667 
	C73.786461,285.825836 96.617889,285.761505 119.444725,286.012482 
	C124.504501,286.068115 126.186302,284.533997 126.019226,279.492157 
	C125.710350,270.171600 125.842514,260.829559 126.046028,251.502029 
	C126.135620,247.395920 124.621033,245.829849 120.492805,246.026367 
	C110.719856,246.491623 101.630898,244.919708 94.558083,237.117371 
	C88.597336,230.541763 86.442284,222.925766 86.770699,214.223328 
	C87.043900,206.984085 86.820946,206.974747 79.687202,206.995483 
	C75.854599,207.006622 72.021523,207.064148 68.189583,207.020370 
	C65.471893,206.989334 64.236847,208.238083 64.260040,210.951874 
	C64.307037,216.450256 64.389122,221.952545 64.231911,227.446808 
	C64.142418,230.574402 66.497192,231.324203 68.497101,232.290054 
	C76.151573,235.986786 79.717690,242.375076 79.121613,250.451965 
	C78.527702,258.499573 74.032074,264.374237 66.160973,267.221222 
	C56.857925,270.586121 47.639771,266.246124 42.883301,256.262451 
	C39.152416,248.431442 42.399521,237.175598 50.324192,233.235413 
	C54.850624,230.984863 56.174564,228.220123 55.876369,223.505905 
	C55.508945,217.697250 55.746613,211.846176 55.823341,206.014771 
	C55.895012,200.567581 58.242493,198.124542 63.733540,197.990906 
	C69.729218,197.844986 75.736969,197.768494 81.727486,197.988190 
	C85.697922,198.133804 87.021767,196.548645 86.878639,192.701645 
	C86.655762,186.710800 86.718361,180.703781 86.848305,174.707687 
	C86.915138,171.623856 85.954193,170.088501 82.605347,170.117172 
	C71.274818,170.214172 59.942657,170.183044 48.611656,170.113556 
	C46.139984,170.098404 44.644638,171.060699 43.506607,173.268387 
	C38.181702,183.598312 29.528822,187.184067 19.164143,183.507889 
	C10.881989,180.570328 5.945176,170.793976 7.771448,160.946930 
	C9.086296,153.857422 16.403423,147.535324 25.007401,146.595520 
	C29.908813,146.060150 39.487995,149.094513 42.594391,156.629654 
	C44.323421,160.823730 46.754684,161.870529 50.928329,161.769653 
	C61.087345,161.524124 71.259766,161.538147 81.419662,161.765991 
	C85.627914,161.860352 87.030273,160.275284 86.866737,156.213684 
	C86.639008,150.557358 86.589951,144.872116 86.897820,139.222870 
	C87.141685,134.748215 85.782700,133.031845 81.026512,133.156799 
	C69.370018,133.463028 57.699600,133.279922 46.035110,133.224564 
	C39.440521,133.193268 38.559761,132.147141 38.513233,125.691193 
	C38.325954,99.705147 39.060940,73.716629 38.254566,47.729713 
	C38.162460,44.761467 37.196152,43.357468 34.573441,42.107857 
	C26.124557,38.082336 21.091469,28.275518 23.357323,20.915213 
	C26.626530,10.295665 35.166466,4.584605 45.648628,6.007968 
	C52.548775,6.944932 58.886307,13.068657 60.585640,20.441051 
	C62.476635,28.644945 59.868427,36.321369 52.655792,40.276329 
	C47.969154,42.846188 46.835972,45.956291 46.886875,50.961128 
	C47.132420,75.102272 46.997425,99.247292 46.997425,123.412621 
	C47.882294,124.480728 49.106220,124.090691 50.238453,124.091721 
	C61.069725,124.101524 71.903023,123.991524 82.730995,124.183510 
	C85.826157,124.238380 86.867233,123.251198 86.856911,120.236107 
	C86.837708,114.623222 86.571091,109.065109 88.704590,103.543785 
	C92.441231,93.873634 103.234726,85.896164 113.663353,85.712685 
	C127.138138,85.475616 125.816406,88.020462 125.906654,73.483467 
	C125.982994,61.184639 126.328987,63.241550 115.422577,63.073566 
	C114.422981,63.058167 113.418716,63.131516 112.423813,63.061520 
	C106.786072,62.664879 102.423210,63.153339 98.954323,69.323517 
	C95.151199,76.088211 88.048363,79.705284 79.706413,77.768440 
	C71.849899,75.944313 65.591812,68.901833 64.822632,61.464737 
	C63.946930,52.997635 67.197540,46.238594 74.666908,42.271191 
	C82.424965,38.150463 94.754097,39.583961 100.116249,49.810898 
	C102.098854,53.592197 104.445595,55.040966 108.681770,54.770229 
	C114.490372,54.399002 120.340454,54.670139 126.172745,54.677902 
	C133.042282,54.687046 134.918137,56.590626 134.956528,63.642723 
	C134.987366,69.307777 135.096527,74.976494 134.937134,80.637009 
	C134.839005,84.121857 135.836929,85.903320 139.713608,85.767700 
	C145.871689,85.552269 152.044510,85.625229 158.207733,85.746971 
	C161.234314,85.806755 162.885330,84.968567 162.855362,81.563751 
	C162.754150,70.066681 162.760284,58.567650 162.859604,47.070530 
	C162.884354,44.206661 161.356033,43.090843 159.041885,41.972630 
	C150.952316,38.063675 146.271881,28.977110 148.250565,21.509293 
	C150.953995,11.306190 158.065933,5.677109 167.991882,5.884106 
	C175.999542,6.051099 182.772064,11.417223 185.125427,19.459665 
	C187.536697,27.699978 184.992661,36.485600 177.605621,40.206284 
	C171.869614,43.095383 170.998383,46.946487 171.200653,52.498707 
	C171.534103,61.651577 171.469681,70.830971 171.202057,79.988342 
	C171.078522,84.215744 172.158691,86.084587 176.742691,85.807068 
	C182.553940,85.455246 188.409912,85.533669 194.232071,85.775795 
	C198.301407,85.945030 199.851288,84.576340 199.771149,80.355034 
	C199.549774,68.694580 199.663605,57.026955 199.713104,45.362453 
	C199.743912,38.103016 200.923126,36.961998 208.160812,36.928123 
	C230.489899,36.823620 252.819122,36.748066 275.148102,36.625671 
	C277.642029,36.612007 280.144135,36.164738 282.625854,36.279076 
	C287.066010,36.483639 289.765381,34.822258 292.084381,30.746559 
	C295.997864,23.868486 305.013641,20.385538 311.879852,22.067739 
	C319.807312,24.009935 326.234100,31.143579 327.000610,38.851559 
	C327.761475,46.503159 323.429382,55.008625 316.088684,57.960358 
	C305.747131,62.118778 296.908600,60.152405 291.104370,49.538307 
	C289.393951,46.410534 287.694641,45.207275 284.248413,45.223114 
	C260.752838,45.331116 237.256165,45.343590 213.760803,45.213200 
	C209.998596,45.192322 208.353516,46.170387 208.420547,50.221691 
	C208.594147,60.713921 208.461273,71.212135 208.369553,81.707245 
	C208.343689,84.664673 209.531784,85.760376 212.548599,85.804848 
	C217.818115,85.882530 223.088196,85.115677 228.329224,87.161964 
	C240.151306,91.777740 247.149994,101.578163 247.304916,114.297966 
	C247.426834,124.308647 245.286224,124.140610 257.339447,124.081566 
	C269.764923,124.020699 269.765198,124.043648 269.792633,111.678169 
	C269.795959,110.178421 269.666931,108.664925 269.824005,107.181595 
	C270.238831,103.263969 268.965118,100.864075 265.094666,99.019379 
	C257.391418,95.347931 253.251495,86.310181 254.965698,78.609879 
	C256.809937,70.325508 264.107025,63.811222 272.477814,62.976387 
	C280.305328,62.195736 289.758301,68.795792 291.984039,76.595650 
	C294.489929,85.377113 290.840698,95.017662 282.881287,98.802216 
	C279.232239,100.537270 278.030304,102.617790 278.185455,106.447464 
	C278.441498,112.769226 278.299835,119.109695 278.231110,125.441254 
	C278.168854,131.178802 276.189362,133.136169 270.326721,133.221695 
	C264.162231,133.311615 257.991791,133.401382 251.831650,133.224579 
	C248.327316,133.124023 247.134644,134.477905 247.235184,137.918289 
	C247.424942,144.411591 247.355957,150.915558 247.253098,157.412857 
	C247.208344,160.240952 248.000885,161.736542 251.184677,161.707687 
	C262.681763,161.603500 274.181091,161.602219 285.677917,161.722473 
	C288.899994,161.756165 289.757172,159.692184 290.930023,157.358749 
	C295.175415,148.912247 304.806580,145.008423 314.088226,147.772568 
	C322.219055,150.193970 327.815918,158.794937 326.938446,167.520172 
	C326.048309,176.371201 319.191010,183.270248 309.602081,184.962067 
	C302.687531,186.182022 294.382294,181.591599 291.054535,174.152115 
	C289.744904,171.224258 288.100281,170.102661 285.045746,170.123489 
	C274.048126,170.198471 263.047852,170.248444 252.052475,170.068268 
	C248.280792,170.006454 247.097778,171.460052 247.227936,175.083328 
	C247.443161,181.074509 247.454865,187.085876 247.220230,193.075729 
	C247.071915,196.861908 248.621506,197.999008 252.206436,197.960297 
	C263.869659,197.834290 275.535309,197.910614 287.199921,197.946854 
	C294.539093,197.969650 296.075745,199.458450 296.084900,206.709213 
	C296.116180,231.538254 296.168457,256.367676 296.045044,281.196106 
	C296.024078,285.410065 296.913391,288.064331 301.146881,290.229919 
	C309.360077,294.431183 315.029999,306.159485 307.840393,316.706299 
	C306.999390,317.940002 306.103912,319.136475 305.116821,320.675110 
	C296.645782,321.000000 288.291534,321.000000 279.290710,320.705200 
	C269.296783,307.659180 271.395721,297.159241 285.082642,288.984436 
	C287.360199,287.624084 287.669861,285.824585 287.667786,283.547363 
	C287.646332,259.720032 287.614746,235.892456 287.722473,212.065567 
	C287.739014,208.408463 286.387787,206.952850 282.757690,207.003189 
	C274.428131,207.118759 266.095764,207.007553 257.764740,207.044662 
	C245.270004,207.100327 247.480133,206.206085 247.311264,217.356613 
	C247.133499,229.093811 241.747269,237.679337 231.556534,243.155685 
	C225.987396,246.148453 219.793243,246.377121 213.561279,246.049103 
	C211.604843,245.946121 208.919662,245.180313 208.628799,248.608475 
	C208.068466,255.212112 208.300354,261.772522 209.239639,268.723907 
	C212.831253,268.723907 215.994141,268.495361 219.112656,268.770264 
	C226.171143,269.392456 232.730103,269.273010 235.475937,260.955902 
	C235.622635,260.511566 236.058884,260.149902 236.396942,259.783508 
	C242.941483,252.691086 252.365921,251.349792 260.340179,256.369385 
	C268.194824,261.313690 271.414062,270.462067 268.173889,278.867310 
	C264.936218,287.266083 258.618164,291.491547 249.759659,291.672913 
	C242.065613,291.830505 237.019440,287.382263 233.645889,280.987640 
	C232.092499,278.043091 230.137604,277.021606 226.914948,277.121643 
	C220.589447,277.317993 214.252670,277.225586 207.921753,277.150940 
	C201.629562,277.076721 199.842743,275.306580 199.773727,269.129089 
	C199.706726,263.131348 199.593201,257.127258 199.795898,251.135956 
	C199.915955,247.587234 198.857376,245.888565 195.046951,245.989929 
	C188.553207,246.162689 182.049637,246.129898 175.553970,245.997955 
	C172.260468,245.931061 171.200256,247.374115 171.229950,250.513519 
	C171.335602,261.676422 171.347916,272.841583 171.232040,284.004242 
	C171.201569,286.940521 172.231644,288.684845 175.009064,289.641174 
	C178.804199,290.947876 181.407288,293.654846 183.351852,297.122375 
	C188.305542,305.955780 185.965591,313.722015 180.000000,321.000000 
	C171.645767,321.000000 163.291534,321.000000 154.468658,321.000000 
M184.500000,94.106468 
	C161.852097,94.099358 139.204163,94.066513 116.556305,94.094933 
	C103.299377,94.111565 95.279762,102.033630 95.270653,115.105644 
	C95.247086,148.911163 95.188972,182.716965 95.296593,216.522171 
	C95.339607,230.034637 103.569801,237.514053 116.043159,237.613098 
	C149.846649,237.881561 183.655396,237.904190 217.458435,237.608994 
	C230.808655,237.492416 238.943802,229.289902 238.876373,216.027786 
	C238.706223,182.556137 238.831116,149.083054 238.819382,115.610542 
	C238.814651,102.093597 230.971939,94.170914 217.473724,94.100990 
	C206.816116,94.045792 196.157928,94.100731 184.500000,94.106468 
M50.764236,18.864313 
	C49.718632,17.297478 48.224449,16.224630 46.609226,15.373317 
	C43.226234,13.590292 39.862999,13.730485 36.809582,16.086447 
	C33.694584,18.489920 30.861958,21.499332 31.597452,25.647579 
	C32.413342,30.249269 35.202377,33.940437 39.989983,35.266533 
	C44.128983,36.412975 47.600822,34.520542 50.141083,31.479906 
	C53.143753,27.885782 53.786438,23.743280 50.764236,18.864313 
M297.316620,166.282654 
	C297.194946,168.249130 298.337646,169.766022 299.247894,171.308456 
	C301.963501,175.910141 309.170837,177.496155 313.641602,174.569809 
	C319.060364,171.023026 320.337555,164.332581 316.336060,159.457520 
	C313.459015,155.952362 309.691681,154.751358 305.211334,155.970749 
	C300.314148,157.303574 297.666504,160.440216 297.316620,166.282654 
M15.585577,165.558701 
	C15.559039,167.259415 16.154547,168.775192 16.840979,170.305283 
	C18.928175,174.957687 22.714067,176.078247 27.418924,175.863327 
	C32.394627,175.636032 34.833172,172.401230 36.313911,168.403442 
	C37.782719,164.437866 36.304947,160.811432 33.263920,158.091171 
	C26.929384,152.424789 16.021404,156.193710 15.585577,165.558701 
M264.598236,77.315742 
	C264.384583,77.764160 264.122620,78.196236 263.964661,78.663475 
	C262.031311,84.381973 264.521057,89.978241 269.933105,92.110863 
	C274.990692,94.103806 281.231995,91.574821 283.301331,86.694038 
	C285.683472,81.075638 283.215698,75.487572 277.522430,72.727272 
	C271.937958,70.019707 268.512329,73.252121 264.598236,77.315742 
M305.914825,50.836933 
	C314.982361,50.963245 320.940094,44.250023 317.865967,37.370319 
	C315.791962,32.728745 311.117218,29.789658 306.801422,30.413820 
	C302.028992,31.104025 297.838745,35.102795 297.338440,39.444321 
	C296.769592,44.380436 299.632965,48.555283 305.914825,50.836933 
M261.182709,273.137939 
	C261.502289,270.631104 260.120972,268.609344 258.975159,266.679901 
	C256.677765,262.811249 251.048584,260.960693 247.363464,262.519684 
	C241.318130,265.077148 239.203384,268.874969 240.345001,275.124023 
	C241.130341,279.422852 245.303864,282.551819 250.081100,282.777222 
	C256.514313,283.080780 259.189972,279.047668 261.182709,273.137939 
M24.931244,301.296143 
	C27.639486,301.850220 29.833225,300.349182 31.877321,299.119537 
	C37.102600,295.976135 38.208469,289.898621 34.792126,284.828552 
	C31.417999,279.821136 25.284697,278.569946 20.391556,281.900024 
	C17.116032,284.129211 15.445614,287.101593 15.784885,291.189728 
	C16.232342,296.581390 19.382833,299.520905 24.931244,301.296143 
M68.355598,255.773788 
	C71.760078,249.936371 71.398186,244.800949 67.340477,241.367859 
	C63.806698,238.378098 57.353127,238.162125 53.891293,240.917801 
	C49.599018,244.334564 48.710953,251.256714 51.996346,255.688385 
	C55.660976,260.631622 61.815395,260.872223 68.355598,255.773788 
M81.074059,49.232647 
	C76.256699,50.035107 73.818115,53.320919 73.352615,57.748287 
	C72.894508,62.105350 74.575012,65.891388 78.660255,68.169617 
	C82.748657,70.449593 86.628593,69.856651 90.264397,67.131851 
	C93.566895,64.656830 95.162079,58.985989 93.378845,54.902340 
	C91.211006,49.937904 87.020676,48.494728 81.074059,49.232647 
M172.946304,33.510559 
	C177.321091,29.073935 178.350540,22.889812 175.401230,18.763386 
	C172.017136,14.028668 166.131744,12.914310 161.347443,16.102388 
	C157.161316,18.891855 155.568954,25.923304 158.121857,30.345659 
	C161.057785,35.431580 166.534210,36.796127 172.946304,33.510559 
M160.167618,298.652100 
	C155.791458,303.505035 155.839737,310.712952 160.274292,314.583771 
	C164.571320,318.334503 171.312866,317.785217 175.010391,313.383057 
	C177.654068,310.235565 177.694138,303.054230 175.085754,299.877228 
	C171.579056,295.606079 166.484528,294.997375 160.167618,298.652100 
M290.778503,316.922058 
	C298.562927,316.690186 303.830139,311.136322 302.282806,304.791718 
	C300.938599,299.279938 296.466492,295.852692 291.076752,296.203918 
	C286.623657,296.494110 282.595642,299.990509 282.041565,304.046600 
	C281.089874,311.013489 283.374268,314.704529 290.778503,316.922058 
z"/>
<path fill="#000000" opacity="1.000000" stroke="none" 
	d="
M210.958084,197.747101 
	C210.983566,184.357941 210.983566,184.358261 198.074600,184.366425 
	C195.273056,184.368195 192.471497,184.366684 188.711792,184.366684 
	C188.711792,188.921204 188.689087,193.010406 188.719269,197.099197 
	C188.741760,200.145615 187.568405,201.618042 184.239929,201.406067 
	C180.256775,201.152390 176.243530,201.259125 172.247208,201.361649 
	C169.257050,201.438354 167.994751,200.083282 168.053513,197.169266 
	C168.103897,194.671692 168.135483,192.162842 167.960129,189.674133 
	C167.678741,185.680252 168.741852,183.161102 173.421783,183.572159 
	C176.174896,183.813980 176.659622,181.847580 176.674301,179.626923 
	C176.710648,174.128906 176.911041,168.627274 176.766541,163.134445 
	C176.672348,159.553223 177.446243,157.236237 181.660080,157.597198 
	C184.037643,157.800888 184.893112,156.354111 184.884918,154.176849 
	C184.879898,152.844131 184.933838,151.511322 184.942749,150.178421 
	C185.013748,139.558746 184.217270,140.709885 194.817123,140.657562 
	C199.982407,140.632065 205.148773,140.720551 210.313126,140.648300 
	C213.035187,140.610229 214.287399,141.737183 214.213745,144.504578 
	C214.133972,147.501144 214.335800,150.506821 214.212326,153.500168 
	C214.090530,156.453140 215.224976,157.919189 218.277023,157.642776 
	C222.192871,157.288086 223.171814,159.488739 222.933365,162.886017 
	C222.700409,166.205261 222.538040,169.532288 222.458267,172.858627 
	C222.378922,176.167358 222.440887,179.479477 222.440887,182.392090 
	C223.185394,183.001999 223.419922,183.361526 223.692139,183.392776 
	C231.305573,184.266739 231.307327,184.261246 231.307983,192.300186 
	C231.308090,193.633163 231.173218,194.978424 231.308014,196.296814 
	C231.714325,200.270569 229.907471,201.657990 226.059952,201.405731 
	C222.409378,201.166367 218.731644,201.341187 215.065842,201.334259 
	C212.913193,201.330185 210.978088,201.040329 210.958084,197.747101 
M201.984634,163.764923 
	C201.992111,163.268799 202.022385,162.771790 202.002991,162.276718 
	C201.929230,160.394196 201.856277,158.310150 199.208984,158.603043 
	C196.829742,158.866318 197.354065,160.984848 197.323578,162.539658 
	C197.255508,166.011261 197.286880,169.485641 197.330399,172.958221 
	C197.349365,174.471786 198.008423,175.544418 199.712753,175.450150 
	C201.130859,175.371704 201.725342,174.380753 201.775009,173.108734 
	C201.884628,170.301056 201.906586,167.489944 201.984634,163.764923 
z"/>
<path fill="#000000" opacity="1.000000" stroke="none" 
	d="
M135.986435,140.652771 
	C137.649796,140.652374 138.815720,140.652206 139.981659,140.652023 
	C148.407501,140.650726 148.407501,140.650726 149.328125,148.859863 
	C150.420563,149.925125 151.835907,149.693359 153.113831,149.625961 
	C156.485931,149.448120 157.372757,151.162231 157.315384,154.228790 
	C157.259750,157.201355 156.080948,158.472565 153.108185,158.368851 
	C149.947617,158.258575 146.777756,158.288193 143.615662,158.382034 
	C139.761307,158.496460 135.985535,158.763184 136.655823,152.965485 
	C136.827850,151.477661 135.624222,150.572906 134.081497,150.478394 
	C132.752960,150.397003 131.419174,150.381470 130.087509,150.374237 
	C123.395432,150.337936 123.354225,150.342163 123.340477,156.909180 
	C123.317329,167.965317 121.854683,166.536896 133.190964,166.643738 
	C135.522629,166.665710 137.854675,166.646866 140.186554,166.647568 
	C148.250290,166.649979 148.250290,166.650101 149.282700,174.281433 
	C152.569595,175.271713 157.799484,172.940933 157.504166,180.197906 
	C157.059982,191.112991 157.570450,191.133759 149.378922,193.093048 
	C148.113800,201.353546 148.113800,201.353821 139.436752,201.353439 
	C132.108002,201.353119 124.768311,201.108154 117.454353,201.436600 
	C112.540016,201.657303 110.072159,200.314606 111.116188,195.012238 
	C111.232964,194.419189 110.949409,193.747284 110.886604,193.339737 
	C109.742073,192.193588 108.510719,192.291473 107.385056,192.389526 
	C103.811447,192.700867 102.786568,190.985245 102.852829,187.632187 
	C102.922798,184.091797 104.875313,183.543884 107.722885,183.635696 
	C110.385033,183.721527 113.053169,183.693283 115.717041,183.637634 
	C119.783028,183.552704 124.102432,182.946823 123.408676,189.371918 
	C123.233574,190.993561 124.679062,191.394135 126.133858,191.630112 
	C135.393875,193.132126 136.802124,191.952271 136.897812,182.428589 
	C136.968277,175.416077 136.958206,175.402344 130.160477,175.382034 
	C126.329559,175.370575 122.498604,175.377014 118.667686,175.365799 
	C111.176727,175.343903 111.176735,175.341110 110.833946,168.461121 
	C110.567474,168.169724 110.374962,167.753265 110.122108,167.712692 
	C102.917061,166.556076 102.917007,166.562225 102.944901,158.906326 
	C102.951576,157.074265 102.978088,155.241638 102.944878,153.410202 
	C102.901329,151.008484 103.858078,149.496552 106.442688,149.688095 
	C109.624435,149.923904 111.147469,148.666626 110.832886,145.383331 
	C110.465958,141.553589 112.536797,140.538788 116.002396,140.618668 
	C122.494751,140.768280 128.993134,140.656235 135.986435,140.652771 
z"/>
</svg>